#N canvas 66 39 1343 856 12;
#N canvas 687 94 806 461 OSC 0;
#X text 275 9 Receive OSC from phone;
#X text 274 29 This example works with Multisense OSC in Android;
#X text 274 70 All values have been scaled to between -1 and 1;
#X text 276 49 For other apps \, change the route path accordingly
;
#X obj 10 213 unpack f f f f f f f;
#X floatatom 8 253 5 0 0 0 - - -;
#X floatatom 70 253 5 0 0 0 - - -;
#X floatatom 133 253 5 0 0 0 - - -;
#X floatatom 365 252 5 0 0 0 - - -;
#X floatatom 428 252 5 0 0 0 - - -;
#X floatatom 491 252 5 0 0 0 - - -;
#X obj 8 325 s accelX;
#X obj 70 325 s accelY;
#X obj 133 325 s accelZ;
#X text 6 348 Acceleration rate in X \, Y \, Z including gravity;
#X obj 365 324 s gyroX;
#X obj 428 324 s gyroY;
#X obj 491 324 s gyroZ;
#X text 363 348 Rotation rate (gyroscope) centered on X \, Y \, Z;
#X obj 8 276 / 30;
#X floatatom 8 300 5 0 0 0 - - -;
#X floatatom 70 300 5 0 0 0 - - -;
#X obj 70 276 / 30;
#X floatatom 133 300 5 0 0 0 - - -;
#X obj 133 276 / 30;
#X floatatom 365 299 5 0 0 0 - - -;
#X obj 365 275 / 360;
#X floatatom 428 299 5 0 0 0 - - -;
#X obj 428 275 / 360;
#X obj 491 275 / 360;
#X floatatom 491 299 5 0 0 0 - - -;
#X obj 17 78 oscparse;
#X obj 17 108 list trim;
#X obj 17 132 list split 2;
#X obj 57 160 list trim;
#X obj 57 184 route devicemotion;
#X obj 17 52 netreceive -u -b 8008;
#X msg 127 14 listen 0;
#X msg 15 14 listen 8008;
#X obj 17 598 unpack f f f f f f f;
#X floatatom 15 638 5 0 0 0 - - -;
#X floatatom 94 640 5 0 0 0 - - -;
#X floatatom 173 640 5 0 0 0 - - -;
#X floatatom 372 637 5 0 0 0 - - -;
#X floatatom 435 637 5 0 0 0 - - -;
#X floatatom 502 639 5 0 0 0 - - -;
#X obj 15 661 / 30;
#X floatatom 15 685 5 0 0 0 - - -;
#X floatatom 94 687 5 0 0 0 - - -;
#X obj 94 663 / 30;
#X floatatom 173 687 5 0 0 0 - - -;
#X obj 173 663 / 30;
#X floatatom 372 684 5 0 0 0 - - -;
#X obj 372 660 / 360;
#X floatatom 435 684 5 0 0 0 - - -;
#X obj 435 660 / 360;
#X obj 502 662 / 360;
#X floatatom 502 686 5 0 0 0 - - -;
#X obj 24 463 oscparse;
#X obj 24 493 list trim;
#X obj 24 517 list split 2;
#X obj 64 545 list trim;
#X obj 64 569 route devicemotion;
#X msg 134 399 listen 0;
#X obj 24 437 netreceive -u -b 65000;
#X msg 22 399 listen 65000;
#X obj 15 710 s accelX2;
#X obj 94 712 s accelY2;
#X obj 173 712 s accelZ2;
#X obj 372 709 s gyroX2;
#X obj 435 709 s gyroY2;
#X obj 502 711 s gyroZ2;
#X floatatom 540 551 5 0 0 0 - - -;
#X floatatom 590 583 5 0 0 0 - - -;
#X floatatom 495 527 5 0 0 0 - - -;
#X floatatom 658 621 5 0 0 0 - - -;
#X floatatom 495 426 5 0 0 0 - - -;
#X floatatom 540 454 5 0 0 0 - - -;
#X obj 495 395 r accelX;
#X obj 540 426 r accelY;
#X floatatom 590 489 5 0 0 0 - - -;
#X floatatom 658 517 5 0 0 0 - - -;
#X obj 590 463 r accelX2;
#X obj 658 489 r accelY2;
#X obj 495 478 int;
#X obj 540 504 int;
#X obj 590 535 int;
#X obj 658 567 int;
#X obj 495 553 s X1;
#X obj 540 578 s Y1;
#X obj 590 606 s X2;
#X obj 658 646 s Y2;
#X obj 658 543 * 100;
#X obj 658 594 / 100;
#X obj 590 511 * 100;
#X obj 590 559 / 100;
#X obj 540 480 * 100;
#X obj 540 527 / 100;
#X obj 495 502 / 100;
#X obj 495 450 * 100;
#X connect 4 1 5 0;
#X connect 4 2 6 0;
#X connect 4 3 7 0;
#X connect 4 4 8 0;
#X connect 4 5 9 0;
#X connect 4 6 10 0;
#X connect 5 0 19 0;
#X connect 6 0 22 0;
#X connect 7 0 24 0;
#X connect 8 0 26 0;
#X connect 9 0 28 0;
#X connect 10 0 29 0;
#X connect 19 0 20 0;
#X connect 20 0 11 0;
#X connect 21 0 12 0;
#X connect 22 0 21 0;
#X connect 23 0 13 0;
#X connect 24 0 23 0;
#X connect 25 0 15 0;
#X connect 26 0 25 0;
#X connect 27 0 16 0;
#X connect 28 0 27 0;
#X connect 29 0 30 0;
#X connect 30 0 17 0;
#X connect 31 0 32 0;
#X connect 32 0 33 0;
#X connect 33 1 34 0;
#X connect 34 0 35 0;
#X connect 35 0 4 0;
#X connect 36 0 31 0;
#X connect 37 0 36 0;
#X connect 38 0 36 0;
#X connect 39 1 40 0;
#X connect 39 2 41 0;
#X connect 39 3 42 0;
#X connect 39 4 43 0;
#X connect 39 5 44 0;
#X connect 39 6 45 0;
#X connect 40 0 46 0;
#X connect 41 0 49 0;
#X connect 42 0 51 0;
#X connect 43 0 53 0;
#X connect 44 0 55 0;
#X connect 45 0 56 0;
#X connect 46 0 47 0;
#X connect 47 0 66 0;
#X connect 48 0 67 0;
#X connect 49 0 48 0;
#X connect 50 0 68 0;
#X connect 51 0 50 0;
#X connect 52 0 69 0;
#X connect 53 0 52 0;
#X connect 54 0 70 0;
#X connect 55 0 54 0;
#X connect 56 0 57 0;
#X connect 57 0 71 0;
#X connect 58 0 59 0;
#X connect 59 0 60 0;
#X connect 60 1 61 0;
#X connect 61 0 62 0;
#X connect 62 0 39 0;
#X connect 63 0 64 0;
#X connect 64 0 58 0;
#X connect 65 0 64 0;
#X connect 72 0 89 0;
#X connect 73 0 90 0;
#X connect 74 0 88 0;
#X connect 75 0 91 0;
#X connect 76 0 99 0;
#X connect 77 0 96 0;
#X connect 78 0 76 0;
#X connect 79 0 77 0;
#X connect 80 0 94 0;
#X connect 81 0 92 0;
#X connect 82 0 80 0;
#X connect 83 0 81 0;
#X connect 84 0 98 0;
#X connect 85 0 97 0;
#X connect 86 0 95 0;
#X connect 87 0 93 0;
#X connect 92 0 87 0;
#X connect 93 0 75 0;
#X connect 94 0 86 0;
#X connect 95 0 73 0;
#X connect 96 0 85 0;
#X connect 97 0 72 0;
#X connect 98 0 74 0;
#X connect 99 0 84 0;
#X restore 29 62 pd OSC;
#X obj 243 51 loadbang;
#X obj 176 96 s load;
#X msg 243 122 \; pd dsp \$1;
#X obj 243 92 tgl 15 0 empty empty empty 17 7 0 10 -262144 -1 -1 1
1;
#X obj 176 70 bng 15 250 50 0 empty empty empty 17 7 0 10 -262144 -1
-1;
#X obj 239 273 vsl 30 128 0 1 0 0 vol empty Volume -20 -15 0 20 -204786
-1 -1 0 1;
#N canvas 520 58 1000 827 pbSpeed 0;
#X obj 62 101 moses;
#X floatatom 32 25 5 0 0 0 - - -;
#X obj 94 45 r maxFrwd;
#X obj 148 120 moses;
#X obj 179 69 r maxBack;
#X obj 749 20 r load;
#X obj 135 702 *;
#X obj 153 672 r totSamp;
#X obj 135 744 s playSpeed;
#X obj 260 289 tgl 15 0 bck backward Backward 17 7 0 10 -262144 -1
-1 0 1;
#X obj 23 241 s forward;
#X obj 189 241 s backward;
#X msg 62 206 1;
#X msg 221 210 1;
#X obj 193 290 tgl 15 0 inc forward Forward 17 7 0 10 -262144 -1 -1
0 1;
#X obj 332 290 tgl 15 0 res reset Reset 17 7 0 10 -262144 -1 -1 0 1
;
#X obj 114 239 s reset;
#X msg 148 210 1;
#X obj 389 635 s currentSpeed;
#X msg 23 206 0;
#X msg 189 210 0;
#X floatatom 390 586 5 0 0 0 - - -;
#X msg 135 512 0.01;
#X obj 135 606 expr if ($f1 < 0.5 \, 0.5 \, $f1);
#X obj 135 632 expr if ($f1 > 1.5 \, 1.5 \, $f1);
#X msg 114 209 0;
#X obj 460 140 r currentSpeed;
#X floatatom 460 172 5 0 0 0 - - -;
#X obj 135 580 + 1;
#X obj 460 205 moses 0.99;
#X obj 527 251 moses 1.01;
#X msg 460 240 set 0.01;
#X msg 497 285 set;
#X msg 594 293 set -0.01;
#X obj 32 -4 r combY;
#X msg 531 323 0;
#X obj 529 358 s reset;
#X obj 32 48 change;
#X obj 130 288 r load;
#X obj 130 326 tgl 15 0 empty empty empty 17 7 0 10 -262144 -1 -1 1
1;
#X obj 460 482 spigot;
#X msg 194 450 set -0.01;
#X msg 33 478 set 0.01;
#X obj 33 449 spigot;
#X obj 194 424 spigot;
#X obj 72 425 r inc;
#X obj 233 396 r bck;
#X obj 499 450 r res;
#X msg 749 87 -0.4;
#X msg 838 100 0.4;
#X obj 130 357 metro 20;
#X obj 749 118 s loadF;
#X obj 838 128 s loadB;
#X floatatom 179 93 5 0 0 0 - - -;
#X floatatom 94 69 5 0 0 0 - - -;
#X text 178 26 If current value is outside set values \, increase/decrease
speed. If within \, reset speed.;
#X text 199 354 Send either increase or decrease every 20 ms;
#X text 630 347 If reset is active \, check current speed. If above
1 \, decrease speed and vice versa. When speed reaches 1 \, set message
box to NULL and turn of reset toggle.;
#X text 510 605 Keeps speed value within 0.5 - 1.5;
#X text 253 691 Multiply speed value by total samples.;
#X text 211 145 When conditions are met for one \, turn off the others
;
#X text 186 516 Message atom contains next value to be added with current
speed value.;
#X connect 0 0 12 0;
#X connect 0 0 20 0;
#X connect 0 0 25 0;
#X connect 0 1 3 0;
#X connect 1 0 37 0;
#X connect 2 0 54 0;
#X connect 3 0 17 0;
#X connect 3 0 20 0;
#X connect 3 0 19 0;
#X connect 3 1 13 0;
#X connect 3 1 19 0;
#X connect 3 1 25 0;
#X connect 4 0 53 0;
#X connect 5 0 48 0;
#X connect 5 0 49 0;
#X connect 6 0 8 0;
#X connect 7 0 6 1;
#X connect 12 0 10 0;
#X connect 13 0 11 0;
#X connect 17 0 16 0;
#X connect 19 0 10 0;
#X connect 20 0 11 0;
#X connect 21 0 18 0;
#X connect 21 0 28 1;
#X connect 22 0 28 0;
#X connect 23 0 24 0;
#X connect 24 0 21 0;
#X connect 24 0 6 0;
#X connect 25 0 16 0;
#X connect 26 0 27 0;
#X connect 27 0 29 0;
#X connect 28 0 23 0;
#X connect 29 0 31 0;
#X connect 29 1 30 0;
#X connect 30 0 32 0;
#X connect 30 0 35 0;
#X connect 30 1 33 0;
#X connect 31 0 40 0;
#X connect 32 0 40 0;
#X connect 33 0 40 0;
#X connect 34 0 1 0;
#X connect 35 0 36 0;
#X connect 37 0 0 0;
#X connect 38 0 39 0;
#X connect 39 0 50 0;
#X connect 40 0 22 0;
#X connect 41 0 22 0;
#X connect 42 0 22 0;
#X connect 43 0 42 0;
#X connect 44 0 41 0;
#X connect 45 0 43 1;
#X connect 46 0 44 1;
#X connect 47 0 40 1;
#X connect 48 0 51 0;
#X connect 49 0 52 0;
#X connect 50 0 22 0;
#X connect 50 0 43 0;
#X connect 50 0 44 0;
#X connect 53 0 3 1;
#X connect 54 0 0 1;
#X restore 28 86 pd pbSpeed;
#N canvas -9 -9 1920 966 filter 0;
#X obj 808 143 r minVal;
#X obj 884 157 r maxVal;
#X obj 776 195 moses;
#X obj 852 214 moses;
#X obj 852 258 -;
#X obj 927 239 r minVal;
#X obj 853 300 *;
#X obj 989 93 r scale;
#X obj 1014 181 r maxVal;
#X obj 1105 178 r minVal;
#X obj 1014 219 t b f;
#X obj 1105 219 t b b f;
#X obj 989 281 /;
#X obj 1089 262 -;
#X floatatom 853 334 10 0 0 0 - - -;
#X obj 776 226 bng 15 250 50 0 empty empty empty 17 7 0 10 -262144
-1 -1;
#X floatatom 777 115 5 0 0 0 - - -;
#X floatatom 321 425 10 0 0 0 - - -;
#X obj 321 395 pow;
#X obj 322 337 t b f;
#X msg 276 370 141;
#X obj 777 448 s frqMod;
#X obj 323 304 r frqMod;
#X msg 777 253 0;
#X obj 295 457 -;
#X floatatom 298 538 10 0 0 0 - - -;
#X obj 429 331 moses 0;
#X msg 512 360 1;
#X obj 779 87 abs;
#X msg 398 372 0;
#X obj 314 594 spigot;
#X msg 440 374 1;
#X msg 478 359 0;
#X obj 419 432 tgl 15 0 empty empty empty 17 7 0 10 -262144 -1 -1 0
1;
#X obj 493 431 tgl 15 0 empty empty empty 17 7 0 10 -262144 -1 -1 0
1;
#X obj 314 675 s filterL;
#X obj 402 595 spigot;
#X obj 402 677 s filterR;
#X obj 255 491 moses 1000;
#X msg 255 516 1000;
#X obj 84 17 r load;
#X obj 314 642 spigot;
#X obj 402 641 spigot;
#X obj 490 600 tgl 15 0 empty empty empty 17 7 0 10 -262144 -1 -1 1
1;
#X obj 491 568 r sync;
#X obj 591 5 r combX;
#X msg 49 79 0.2;
#X obj 591 38 change;
#X msg 139 82 0.6;
#X msg 231 87 2.1;
#X msg 247 410 20000;
#X obj 49 107 s loadminVal;
#X obj 139 125 s loadmaxVal;
#X obj 231 115 s loadscale;
#X floatatom 808 167 5 0 0 0 - - -;
#X floatatom 884 181 5 0 0 0 - - -;
#X floatatom 989 117 5 0 0 0 - - -;
#X text 810 85 Sets value to positive.;
#X text 554 198 If value is below min \, send 0;
#X text 1085 304 Scales min and max values to chosen scale (0-N);
#X text 90 336 20000 - 141^X ( X = frqMod);
#X text 52 486 If value is below 1000 Hz \, set 1000;
#X text 512 397 If positive \, send to L \, if negative \, send to
R;
#X text 512 628 Block application of filter if async;
#X obj 883 238 bng 15 250 50 0 empty empty empty 17 7 0 10 -262144
-1 -1;
#X msg 956 149 set \$1;
#X msg 933 334 2.1;
#X floatatom 918 398 5 0 0 0 - - -;
#X connect 0 0 54 0;
#X connect 1 0 55 0;
#X connect 2 0 15 0;
#X connect 2 1 3 0;
#X connect 3 0 4 0;
#X connect 3 1 64 0;
#X connect 4 0 6 0;
#X connect 5 0 4 1;
#X connect 6 0 14 0;
#X connect 7 0 56 0;
#X connect 7 0 65 0;
#X connect 8 0 10 0;
#X connect 9 0 11 0;
#X connect 10 0 12 0;
#X connect 10 1 13 0;
#X connect 11 0 12 0;
#X connect 11 1 13 0;
#X connect 11 2 13 1;
#X connect 12 0 6 1;
#X connect 13 0 12 1;
#X connect 14 0 21 0;
#X connect 15 0 23 0;
#X connect 16 0 2 0;
#X connect 17 0 24 1;
#X connect 18 0 17 0;
#X connect 19 0 20 0;
#X connect 19 0 50 0;
#X connect 19 1 18 1;
#X connect 20 0 18 0;
#X connect 22 0 19 0;
#X connect 23 0 21 0;
#X connect 24 0 38 0;
#X connect 25 0 30 0;
#X connect 25 0 36 0;
#X connect 26 0 29 0;
#X connect 26 0 31 0;
#X connect 26 1 27 0;
#X connect 26 1 32 0;
#X connect 27 0 34 0;
#X connect 28 0 16 0;
#X connect 29 0 34 0;
#X connect 30 0 41 0;
#X connect 31 0 33 0;
#X connect 32 0 33 0;
#X connect 33 0 36 1;
#X connect 34 0 30 1;
#X connect 36 0 42 0;
#X connect 38 0 39 0;
#X connect 38 1 25 0;
#X connect 39 0 25 0;
#X connect 40 0 46 0;
#X connect 40 0 48 0;
#X connect 40 0 49 0;
#X connect 41 0 35 0;
#X connect 42 0 37 0;
#X connect 43 0 42 1;
#X connect 43 0 41 1;
#X connect 44 0 43 0;
#X connect 45 0 47 0;
#X connect 46 0 51 0;
#X connect 47 0 26 0;
#X connect 47 0 28 0;
#X connect 48 0 52 0;
#X connect 49 0 53 0;
#X connect 50 0 24 0;
#X connect 54 0 2 1;
#X connect 55 0 3 1;
#X connect 56 0 12 0;
#X connect 64 0 66 0;
#X connect 65 0 66 0;
#X connect 66 0 67 0;
#X connect 67 0 21 0;
#X restore 28 112 pd filter;
#N canvas 989 84 756 703 sync 0;
#X floatatom 46 542 5 0 0 0 - - -;
#X msg 144 635 1;
#X msg 180 635 0;
#X msg 45 637 1;
#X msg 105 636 0;
#X obj 45 684 s DelR;
#X obj 180 685 s OrgR;
#X obj 46 516 abs;
#X obj 430 932 s dMs;
#X obj 20 121 r load;
#X obj 20 203 bng 15 250 50 0 empty empty empty 17 7 0 10 -262144 -1
-1;
#X obj 20 151 tgl 15 0 empty empty empty 17 7 0 10 -262144 -1 -1 1
1;
#X floatatom 141 455 5 0 0 0 - - -;
#X floatatom 46 456 5 0 0 0 - - -;
#X obj 46 486 expr $f1 - $f2;
#X obj 105 685 s sync;
#X floatatom 175 400 5 0 0 0 - - -;
#X obj 175 423 s combX;
#X floatatom 268 386 5 0 0 0 - - -;
#X obj 268 414 s combY;
#X obj 20 174 metro 100;
#X obj 107 261 expr $f2 + $f3 \; $f4 + $f5 \; $f2 + $f4 \; $f3 + $f5
\;;
#X obj 132 9 r X1;
#X floatatom 132 39 5 0 0 0 - - -;
#X floatatom 158 88 5 0 0 0 - - -;
#X floatatom 183 136 5 0 0 0 - - -;
#X floatatom 209 199 5 0 0 0 - - -;
#X obj 209 165 r Y2;
#X obj 183 111 r X2;
#X obj 158 63 r Y1;
#X obj 45 582 moses 0.35;
#X obj 383 554 moses;
#X obj 383 598 -;
#X obj 384 640 *;
#X obj 545 559 t b f;
#X obj 636 559 t b b f;
#X obj 520 621 /;
#X obj 620 602 -;
#X floatatom 384 673 10 0 0 0 - - -;
#X obj 415 490 r maxAsync;
#X msg 439 52 0.35;
#X obj 439 9 r load;
#X msg 570 49 5;
#X obj 636 477 r minAsync;
#X obj 545 521 r maxAsync;
#X obj 520 432 r delayScale;
#X obj 439 562 r minAsync;
#X obj 112 535 r minAsync;
#X msg 327 49 0.6;
#X floatatom 383 448 5 0 0 0 - - -;
#X floatatom 430 793 5 0 0 0 - - -;
#X obj 384 705 moses 1;
#X obj 384 732 bng 15 250 50 0 empty empty empty 17 7 0 10 -262144
-1 -1;
#X msg 384 758 set 1;
#X obj 430 815 int;
#X obj 430 843 * 100;
#X obj 430 873 change;
#X floatatom 430 897 5 0 0 0 - - -;
#X obj 206 505 s diff;
#X obj 327 79 s loadmaxAsync;
#X obj 439 79 s loadminAsync;
#X obj 570 77 s loaddelayScale;
#X text 13 224 Metro fires next calculation;
#X text 267 272 Expression takes in sensor values and adds them into
combined X and Y values between devices \, as well as total sensor
value on each phone. Combined values get gets sent to related subpatch.
Next expression calculates the difference in total value between devices
to see if they are in sync or not.;
#X floatatom 415 514 5 0 0 0 - - -;
#X floatatom 520 456 5 0 0 0 - - -;
#X floatatom 636 501 5 0 0 0 - - -;
#X text 471 661 Same scaling logic as in sub-patch "pd filter". If
value is below 1 \, set 1;
#X text 496 806 Make value an integer and multiply by 100 to get delay
in ms. Send to "pd playback" sub-patch.;
#X text 44 716 If below moses value \, activate normal R-channel. If
above or equal to value \, activate delayed channel. Change "sync"
toggle accordingly.;
#X connect 0 0 30 0;
#X connect 1 0 6 0;
#X connect 2 0 6 0;
#X connect 3 0 5 0;
#X connect 3 0 15 0;
#X connect 4 0 5 0;
#X connect 4 0 15 0;
#X connect 7 0 0 0;
#X connect 9 0 11 0;
#X connect 10 0 21 0;
#X connect 11 0 20 0;
#X connect 12 0 14 1;
#X connect 13 0 14 0;
#X connect 14 0 7 0;
#X connect 14 0 58 0;
#X connect 16 0 17 0;
#X connect 18 0 19 0;
#X connect 20 0 10 0;
#X connect 21 0 13 0;
#X connect 21 1 12 0;
#X connect 21 2 16 0;
#X connect 21 3 18 0;
#X connect 22 0 23 0;
#X connect 23 0 21 1;
#X connect 24 0 21 2;
#X connect 25 0 21 3;
#X connect 26 0 21 4;
#X connect 27 0 26 0;
#X connect 28 0 25 0;
#X connect 29 0 24 0;
#X connect 30 0 2 0;
#X connect 30 0 3 0;
#X connect 30 1 1 0;
#X connect 30 1 4 0;
#X connect 30 1 49 0;
#X connect 31 0 32 0;
#X connect 32 0 33 0;
#X connect 33 0 38 0;
#X connect 34 0 36 0;
#X connect 34 1 37 0;
#X connect 35 0 36 0;
#X connect 35 1 37 0;
#X connect 35 2 37 1;
#X connect 36 0 33 1;
#X connect 37 0 36 1;
#X connect 38 0 51 0;
#X connect 39 0 64 0;
#X connect 40 0 60 0;
#X connect 41 0 40 0;
#X connect 41 0 48 0;
#X connect 41 0 42 0;
#X connect 42 0 61 0;
#X connect 43 0 66 0;
#X connect 44 0 34 0;
#X connect 45 0 65 0;
#X connect 46 0 32 1;
#X connect 47 0 30 1;
#X connect 48 0 59 0;
#X connect 49 0 31 0;
#X connect 50 0 54 0;
#X connect 51 0 52 0;
#X connect 51 1 50 0;
#X connect 52 0 53 0;
#X connect 53 0 50 0;
#X connect 54 0 55 0;
#X connect 55 0 56 0;
#X connect 56 0 57 0;
#X connect 57 0 8 0;
#X connect 64 0 31 1;
#X connect 65 0 36 0;
#X connect 66 0 35 0;
#X restore 28 137 pd sync;
#N canvas -9 -9 1920 966 playback 0;
#X obj 197 214 samplerate~;
#X floatatom 197 252 5 0 0 0 - - -;
#X obj 383 228 soundfiler;
#X floatatom 383 258 15 0 0 0 - - -;
#X obj 198 276 /;
#X floatatom 198 299 10 0 0 0 - - -;
#X obj 198 366 phasor~;
#X obj 198 389 *~;
#X obj 197 787 dac~;
#X obj 346 472 *~ 0.7;
#X obj 198 480 *~ 0.7;
#X obj 262 451 r vol;
#X floatatom 412 663 10 0 0 0 - - -;
#X floatatom 265 661 10 0 0 0 - - -;
#X obj 412 636 r filterR;
#X obj 265 635 r filterL;
#X obj 197 418 tabread4~ musicL;
#X obj 345 408 tabread4~ musicR;
#X obj 366 438 delwrite~ DR 5000;
#X obj 505 485 *~;
#X obj 346 544 spigot~;
#X obj 392 518 tgl 15 0 empty empty empty 17 7 0 10 -262144 -1 -1 0
1;
#X obj 393 493 r OrgR;
#X obj 505 518 spigot~;
#X obj 551 492 tgl 15 0 empty empty empty 17 7 0 10 -262144 -1 -1 1
1;
#X obj 552 467 r DelR;
#X obj 506 439 delread~ DR 500;
#X obj 506 374 r dMs;
#X obj 212 326 s totSamp;
#X obj 198 697 lop~ 20000;
#X obj 345 690 lop~ 20000;
#X obj 109 320 r playSpeed;
#X msg 383 200 read -resize \$1 musicL musicR;
#X obj 198 153 openpanel;
#X obj 198 131 bng 15 250 50 0 empty empty empty 17 7 0 10 -262144
-1 -1;
#X obj 197 181 t b s;
#X floatatom 506 403 5 0 0 0 - - -;
#X obj 198 103 inlet;
#X obj 42 46 table musicL;
#X obj 42 77 table musicR;
#X text 17 12 Tables to store file;
#X text 533 245 Reads in chosen audio file.;
#X text 266 363 Sets playback speed;
#X text 506 660 Low-pass filter applied separately to left and right
channels.;
#X text 568 395 Sets delay in ms;
#X text 541 552 Spigots lets one of the streams through depending on
sync-value.;
#X connect 0 0 1 0;
#X connect 1 0 4 0;
#X connect 2 0 3 0;
#X connect 3 0 4 1;
#X connect 3 0 7 1;
#X connect 4 0 5 0;
#X connect 5 0 6 0;
#X connect 5 0 28 0;
#X connect 6 0 7 0;
#X connect 7 0 16 0;
#X connect 7 0 17 0;
#X connect 9 0 20 0;
#X connect 10 0 29 0;
#X connect 11 0 10 1;
#X connect 11 0 9 1;
#X connect 11 0 19 1;
#X connect 12 0 30 1;
#X connect 13 0 29 1;
#X connect 14 0 12 0;
#X connect 15 0 13 0;
#X connect 16 0 10 0;
#X connect 17 0 9 0;
#X connect 17 0 18 0;
#X connect 19 0 23 0;
#X connect 20 0 30 0;
#X connect 21 0 20 1;
#X connect 22 0 21 0;
#X connect 23 0 30 0;
#X connect 24 0 23 1;
#X connect 25 0 24 0;
#X connect 26 0 19 0;
#X connect 27 0 36 0;
#X connect 29 0 8 0;
#X connect 30 0 8 1;
#X connect 31 0 6 0;
#X connect 32 0 2 0;
#X connect 33 0 35 0;
#X connect 34 0 33 0;
#X connect 35 0 0 0;
#X connect 35 1 32 0;
#X connect 36 0 26 0;
#X connect 37 0 34 0;
#X restore 105 386 pd playback;
#X obj 105 324 bng 50 250 50 0 empty empty Select_Song -40 -15 0 20
-258113 -1 -1;
#X obj 1003 269 hsl 128 15 -1 1 0 0 maxVal loadmaxVal Filter_MaxVal
-2 -8 0 10 -4034 -1 -1 10160 1;
#X obj 1004 324 hsl 128 15 -1 1 0 0 minVal loadminVal Filter_MinVal
-2 -8 0 10 -4034 -1 -1 7620 1;
#X obj 1003 377 hsl 128 15 1 3 0 0 scale loadscale Filter_Scale -2
-8 0 10 -4034 -1 -1 6985 1;
#X floatatom 1000 397 5 0 0 0 - - -;
#X floatatom 1001 344 5 0 0 0 - - -;
#X floatatom 1000 289 5 0 0 0 - - -;
#X obj 1005 770 hsl 128 15 0 1 0 0 maxBack loadB MaxBackwards -2 -8
0 10 -258113 -1 -1 5080 1;
#X floatatom 1002 790 5 0 0 0 - - -;
#X obj 1004 709 hsl 128 15 -1 0 0 0 maxFrwd loadF MaxForward -2 -8
0 10 -258113 -1 -1 7620 1;
#X floatatom 1001 729 5 0 0 0 - - -;
#X obj 1002 488 hsl 128 15 0 1 0 0 maxAsync loadmaxAsync Async_MaxVal
-2 -8 0 10 -4160 -1 -1 7620 1;
#X floatatom 999 508 5 0 0 0 - - -;
#X obj 1001 544 hsl 128 15 0 1 0 0 minAsync loadminAsync Async_MinVal
-2 -8 0 10 -4160 -1 -1 4445 1;
#X floatatom 998 564 5 0 0 0 - - -;
#X obj 1001 604 hsl 128 15 0 10 0 0 delayScale loaddelayScale MaxDelay(100ms)
-2 -8 0 10 -260097 -1 -1 6350 1;
#X floatatom 998 624 5 0 0 0 - - -;
#X floatatom 1015 113 5 0 0 0 - - -;
#X obj 1015 82 r X1;
#X floatatom 1077 113 5 0 0 0 - - -;
#X obj 1077 83 r X2;
#X floatatom 1013 178 5 0 0 0 - - -;
#X floatatom 1077 174 5 0 0 0 - - -;
#X obj 1013 147 r Y1;
#X obj 1077 144 r Y2;
#X text 940 35 Sensor data for phone 1 & 2 in X/Y axis;
#X text 1001 224 Filter (Left/Right);
#X text 995 667 Tilt Forward/Backward;
#X text 858 424 Settings:;
#X text 1015 438 Async & Delay;
#X obj 395 604 hsl 128 20 1 -1 0 0 empty combX empty -2 -8 0 10 -262144
-1 -1 6350 1;
#X obj 447 631 vsl 20 128 1 -1 0 0 empty combY empty 0 -9 0 10 -262144
-1 -1 6350 1;
#X text 416 190 Phone 1;
#X text 659 190 Phone 2;
#X text 410 210 Port 8008;
#X text 650 210 Port 65000;
#X text 536 524 COMBINED DATA;
#X text 451 575 X;
#X text 483 680 Y;
#X obj 685 617 vsl 20 128 0 1 0 0 empty diff empty 0 -9 0 10 -262144
-1 -1 0 1;
#X text 634 575 Difference (Async);
#X obj 388 281 hsl 128 20 1 -1 0 0 empty X1 empty -2 -8 0 10 -262144
-1 -1 0 1;
#X obj 440 308 vsl 20 128 1 -1 0 0 empty Y1 empty 0 -9 0 10 -262144
-1 -1 0 1;
#X text 444 252 X;
#X text 476 357 Y;
#X obj 629 281 hsl 128 20 1 -1 0 0 empty X2 empty -2 -8 0 10 -262144
-1 -1 0 1;
#X obj 681 308 vsl 20 128 1 -1 0 0 empty Y2 empty 0 -9 0 10 -262144
-1 -1 0 1;
#X text 685 252 X;
#X text 717 357 Y;
#X text 385 820 Use the CoMote app to connect phones for sensor data.
;
#X floatatom 392 629 5 0 0 0 - - -;
#X floatatom 447 767 5 0 0 0 - - -;
#X floatatom 685 753 5 0 0 0 - - -;
#X floatatom 681 444 5 0 0 0 - - -;
#X floatatom 626 306 5 0 0 0 - - -;
#X floatatom 440 444 5 0 0 0 - - -;
#X floatatom 385 306 5 0 0 0 - - -;
#X floatatom 239 415 5 0 0 0 - - -;
#X text 15 30 Sub-patches;
#X text 146 12 Initializes the program funtionality on start-up \,
reset by clicking load if something doesn't work;
#X connect 1 0 2 0;
#X connect 1 0 4 0;
#X connect 4 0 3 0;
#X connect 5 0 2 0;
#X connect 6 0 68 0;
#X connect 11 0 10 0;
#X connect 12 0 17 0;
#X connect 13 0 16 0;
#X connect 14 0 15 0;
#X connect 18 0 19 0;
#X connect 20 0 21 0;
#X connect 22 0 23 0;
#X connect 24 0 25 0;
#X connect 26 0 27 0;
#X connect 29 0 28 0;
#X connect 31 0 30 0;
#X connect 34 0 32 0;
#X connect 35 0 33 0;
#X connect 41 0 61 0;
#X connect 42 0 62 0;
#X connect 50 0 63 0;
#X connect 52 0 67 0;
#X connect 53 0 66 0;
#X connect 56 0 65 0;
#X connect 57 0 64 0;
